<?xml version="1.0" encoding="iso-8859-1"?>
<!-- Uploaded to: SVG Repo, www.svgrepo.com, Generator: SVG Repo Mixer Tools -->
<svg fill="white" height="100px" width="100px" version="1.1" id="Layer_1" xmlns="http://www.w3.org/2000/svg" xmlns:xlink="http://www.w3.org/1999/xlink" 
	 viewBox="0 0 238.803 238.803" xml:space="preserve">
<g>
	<g>
		<path d="M221.064,184.869h-17.112c-1.796-7.494-8.396-13.1-16.347-13.511c16.91-16.266,26.495-38.538,26.495-62.249
			c0-6.976-0.879-13.873-2.521-20.587h0.447c12.496,0,22.661-10.161,22.661-22.645s-10.165-22.645-22.661-22.645h-22.722
			c0.061-0.679,0.093-1.367,0.093-2.059c0-12.484-10.165-22.645-22.661-22.645H59.717c-12.496,0-22.661,10.161-22.661,22.645
			c0,10.662,7.423,19.606,17.372,21.997c-8.661,13.755-13.254,29.517-13.254,45.939c0,0.649,0.181,1.242,0.448,1.788
			c-5.959,2.857-10.114,8.888-10.114,15.916c0,0.137,0,0.278,0.004,0.414H17.74C7.957,127.226,0,135.167,0,144.93
			s7.957,17.704,17.74,17.704h41.991c9.517,12.059,22.055,21.368,36.283,26.96c0.329,9.476,8.104,17.096,17.678,17.096h17.112
			c1.866,7.784,8.894,13.586,17.257,13.586h73.002c9.783,0,17.74-7.941,17.74-17.704
			C238.804,192.81,230.847,184.869,221.064,184.869z M45.29,41.172c0-7.945,6.474-14.411,14.427-14.411h107.018
			c7.953,0,14.427,6.465,14.427,14.411c0,1.656-0.273,3.269-0.816,4.801c-0.446,1.262-0.253,2.658,0.519,3.751
			c0.772,1.094,2.022,1.741,3.361,1.741h27.8c7.953,0,14.427,6.465,14.427,14.411c0,7.946-6.474,14.411-14.427,14.411H105.007
			c-7.953,0-14.427-6.465-14.427-14.411c0-1.653,0.273-3.273,0.816-4.809c0.442-1.259,0.249-2.658-0.523-3.748
			c-0.772-1.09-2.026-1.737-3.361-1.737H59.717C51.764,55.583,45.29,49.117,45.29,41.172z M17.74,154.398
			c-5.243,0-9.505-4.246-9.505-9.469s4.262-9.469,9.505-9.469H36.4c1.339,0,2.589-0.647,3.361-1.741
			c0.772-1.094,0.965-2.489,0.519-3.751c-0.358-1.009-0.539-2.075-0.539-3.156c0-5.223,4.262-9.469,9.505-9.469h73.002
			c5.243,0,9.505,4.246,9.505,9.469s-4.262,9.469-9.505,9.469h-18.66c-1.339,0-2.589,0.647-3.361,1.741
			c-0.772,1.094-0.965,2.489-0.519,3.751c0.358,1.009,0.539,2.075,0.539,3.156c0,5.223-4.262,9.469-9.505,9.469H17.74z
			 M97.74,181.38c-10.258-4.248-19.497-10.643-27.107-18.746h20.109c9.783,0,17.74-7.941,17.74-17.704c0-0.137,0-0.277-0.004-0.414
			h13.771c9.783,0,17.74-7.941,17.74-17.704s-7.957-17.704-17.74-17.704H49.408c0-16.362,5.001-32.011,14.444-45.29h18.587
			c-0.061,0.683-0.093,1.367-0.093,2.059c0,12.484,10.165,22.645,22.661,22.645h98.078c1.819,6.685,2.78,13.596,2.78,20.587
			c0,23.799-10.647,46.022-29.207,60.967c-0.424,0.341-0.75,0.755-1,1.202h-61.966C106.648,171.278,100.603,175.429,97.74,181.38z
			 M221.064,212.041h-73.002c-5.243,0-9.505-4.246-9.505-9.469c0-2.276-1.842-4.117-4.117-4.117h-20.748
			c-5.243,0-9.505-4.246-9.505-9.469c0-5.223,4.262-9.473,9.505-9.473h72.998c5.243,0,9.509,4.25,9.509,9.473
			c0,2.276,1.842,4.117,4.117,4.117h20.748c5.243,0,9.505,4.246,9.505,9.469C230.569,207.794,226.307,212.041,221.064,212.041z"/>
	</g>
</g>
</svg>